<?xml version="1.0" encoding="UTF-8" standalone="no"?>
<!-- Created with Inkscape (http://www.inkscape.org/) -->

<svg
   width="213.81635mm"
   height="233.59961mm"
   viewBox="0 0 213.81635 233.59961"
   version="1.1"
   id="svg5"
   inkscape:version="1.1.1 (3bf5ae0d25, 2021-09-20, custom)"
   sodipodi:docname="ant.svg"
   xmlns:inkscape="http://www.inkscape.org/namespaces/inkscape"
   xmlns:sodipodi="http://sodipodi.sourceforge.net/DTD/sodipodi-0.dtd"
   xmlns="http://www.w3.org/2000/svg"
   xmlns:svg="http://www.w3.org/2000/svg">
  <sodipodi:namedview
     id="namedview7"
     pagecolor="#ffffff"
     bordercolor="#666666"
     borderopacity="1.0"
     inkscape:pageshadow="2"
     inkscape:pageopacity="0.0"
     inkscape:pagecheckerboard="0"
     inkscape:document-units="mm"
     showgrid="false"
     showguides="false"
     fit-margin-top="0"
     fit-margin-left="0"
     fit-margin-right="0"
     fit-margin-bottom="0"
     inkscape:zoom="0.65655864"
     inkscape:cx="205.61758"
     inkscape:cy="600.09872"
     inkscape:window-width="3834"
     inkscape:window-height="2129"
     inkscape:window-x="1920"
     inkscape:window-y="0"
     inkscape:window-maximized="1"
     inkscape:current-layer="layer1" />
  <defs
     id="defs2" />
  <g
     inkscape:label="Layer 1"
     inkscape:groupmode="layer"
     id="layer1"
     transform="translate(-50.66829,10.648746)">
    <path
       style="fill:#4fbbdf;fill-opacity:1;stroke-width:0.264583"
       d="m 236.13466,222.29965 c -0.39181,-1.03055 -0.31083,-4.32488 0.28903,-11.75673 0.64235,-7.95831 0.75626,-16.53324 0.26711,-20.10834 -0.40408,-2.95333 -1.35389,-6.39544 -2.25595,-8.17557 -1.04334,-2.05894 -4.07633,-4.61472 -16.68218,-14.0574 -6.54844,-4.90525 -12.79157,-9.71466 -13.87362,-10.68758 -2.48102,-2.23077 -3.75221,-2.93521 -12.48756,-6.92008 -3.90707,-1.78232 -8.14665,-3.78831 -9.42129,-4.45775 l -2.31753,-1.21717 1.37689,1.20757 c 3.81293,3.34404 6.52807,8.23958 7.4687,13.46647 0.66763,3.70986 0.16153,13.51605 -1.0114,19.59672 -2.7115,14.05692 -9.45366,24.67909 -18.89779,29.77319 -10.3606,5.58844 -21.75258,2.95671 -30.65697,-7.08225 -7.25083,-8.1747 -11.56815,-21.85351 -11.58767,-36.71385 -0.0108,-8.21807 1.90612,-13.19596 7.01872,-18.22629 l 1.95881,-1.92729 -2.51468,1.29662 c -1.38307,0.71314 -5.51756,2.66704 -9.18777,4.342 -8.2766,3.77716 -9.89194,4.67189 -12.25749,6.78937 -2.31651,2.07358 -2.7518,2.40831 -14.50998,11.15779 -15.09256,11.23067 -15.45209,11.55889 -16.9325,15.45792 -2.06985,5.45147 -2.35495,13.0304 -1.06564,28.32776 0.43283,5.13532 0.50009,9.48007 0.1552,10.02429 -0.67043,1.05791 -1.99983,-0.46419 -2.8858,-3.30409 -1.55916,-4.99778 -2.30453,-12.58358 -2.0963,-21.33477 0.24889,-10.46039 1.7169,-16.82347 4.88413,-21.17029 1.81043,-2.48468 25.59851,-26.1314 29.03945,-28.86688 10.41218,-8.27746 22.95529,-14.41033 30.95499,-15.13524 1.0921,-0.099 1.98564,-0.23513 1.98564,-0.30258 0,-0.0675 -0.64593,-1.33095 -1.43539,-2.80778 -1.71417,-3.20663 -3.28337,-7.12755 -4.11002,-10.26956 l -0.60322,-2.29277 -9.42725,-2.6535 c -14.20727,-3.99893 -13.50917,-3.84024 -16.00132,-3.63742 -1.18645,0.0966 -4.53408,0.47557 -7.43919,0.84226 -10.41755,1.3149 -15.44362,1.7674 -21.04403,1.89457 -3.1287,0.071 -7.96799,0.18447 -10.75397,0.25205 -9.2986,0.22555 -19.40853,-1.17505 -19.40853,-2.6888 0,-1.18698 4.83596,-1.79611 17.85937,-2.24955 7.01325,-0.24418 7.18384,-0.26345 9.33797,-1.05497 4.17755,-1.535 15.58447,-4.61236 22.27974,-6.01063 7.32798,-1.53041 14.23885,-0.87272 28.68274,2.72966 2.02378,0.50475 3.80972,0.94125 3.96875,0.97 0.15902,0.0288 0.26876,-0.17915 0.24384,-0.46202 -0.0249,-0.28287 -0.17667,-2.77796 -0.33724,-5.544657 -0.18486,-3.18524 -0.40265,-5.09878 -0.59379,-5.21691 -0.16601,-0.1026 -0.84769,-0.26809 -1.51484,-0.36776 -2.08023,-0.31077 -7.12009,-1.95199 -9.88238,-3.21818 -5.28784,-2.42385 -9.27317,-5.19889 -12.90562,-8.98635 l -1.99583,-2.081 -3.95729,-1.55127 c -9.63462,-3.77679 -15.4017,-7.45087 -21.82502,-13.90424 -7.03892,-7.07186 -20.09998,-25.39192 -20.09998,-28.1932 0,-1.71216 2.81312,-0.0126 6.62167,4.00061 3.73347,3.93406 8.66742,9.95027 11.0909,13.52366 0.89564,1.32061 1.50774,1.88017 3.01647,2.75753 1.04106,0.60539 6.41721,3.97572 11.947,7.48961 12.53118,7.96291 11.55011,7.41058 17.06562,9.60755 7.50437,2.98916 15.81938,6.93224 21.26841,10.08572 1.29288,0.74823 2.37351,1.32682 2.4014,1.28576 0.0279,-0.0411 0.37471,-0.97976 0.77072,-2.08602 1.9193,-5.36156 5.73768,-9.72805 11.09323,-12.68561 l 1.27022,-0.70147 -2.75153,-0.17789 c -6.92914,-0.44798 -10.31383,-2.65014 -11.45135,-7.45054 -0.35685,-1.50591 -0.40768,-2.66854 -0.27729,-6.34187 0.29288,-8.25056 1.89364,-16.23741 4.62333,-23.06772 l 0.54827,-1.37188 -2.96594,-1.64627 c -1.63126,-0.90545 -5.28764,-3.09644 -8.1253,-4.868861 -2.83766,-1.772423 -5.70859,-3.535093 -6.37986,-3.917043 -2.98631,-1.699218 -2.37006,-4.843052 2.67514,-13.6474321 6.00998,-10.488008 11.50274,-18.0042359 12.45867,-17.0482989 0.7326,0.7325939 -2.49526,11.45418887 -5.29675,17.5936389 -1.86078,4.0778701 -3.28094,6.5235131 -4.7683,8.2114671 l -1.09972,1.248022 0.74239,0.168666 c 5.76473,1.309727 9.29445,2.777218 14.03368,5.834534 1.23622,0.797496 2.28227,1.414071 2.32455,1.370168 0.0423,-0.04391 0.60214,-0.7942 1.24414,-1.667325 3.18403,-4.330361 7.4128,-7.491944 11.68013,-8.732491 1.81379,-0.527282 5.126,-0.588176 7.08772,-0.130304 4.39847,1.026626 9.00386,4.327914 12.30487,8.820523 0.65862,0.896374 1.23209,1.665692 1.27438,1.709597 0.0423,0.0439 1.08832,-0.572672 2.32455,-1.370168 4.21175,-2.717044 9.61846,-5.013288 13.15899,-5.588664 0.65485,-0.106421 1.28247,-0.247891 1.39473,-0.314376 0.11225,-0.06649 -0.28667,-0.677831 -0.88649,-1.358543 -2.80702,-3.185543 -6.58197,-11.4697691 -8.8475,-19.4160481 -1.07039,-3.754354 -1.4559,-6.5601509 -0.90135,-6.5601509 1.16655,0 6.68619,7.7310639 11.6174,16.2718749 3.92527,6.7985381 5.03578,9.3650041 5.02765,11.6192201 -0.006,1.581999 -0.47063,2.262118 -2.24506,3.284241 -0.87312,0.502946 -3.19484,1.93757 -5.15938,3.188052 -1.96453,1.250484 -5.35781,3.296081 -7.54062,4.545781 -3.09634,1.7727 -3.95779,2.38424 -3.91889,2.78202 0.0274,0.28042 0.58245,2.05767 1.23338,3.94944 2.43362,7.0727 3.44338,13.24197 3.46447,21.16666 0.0145,5.44223 7.9e-4,5.58612 -0.67052,7.01146 -1.3399,2.84515 -2.88639,4.06942 -6.32615,5.00802 -1.0914,0.29781 -3.175,0.63599 -4.63021,0.75151 l -2.64583,0.21003 1.19062,0.61932 c 3.16777,1.64778 6.93131,5.07045 8.79462,7.99807 1.07912,1.6955 2.5124,4.8403 2.75198,6.03819 0.0887,0.44336 0.21662,0.80611 0.28434,0.80611 0.0677,0 1.71822,-0.90036 3.66778,-2.00081 6.17046,-3.48297 15.74621,-7.92642 22.82565,-10.5918 1.96453,-0.73964 3.73258,-1.78661 13.53397,-8.01422 4.00182,-2.54268 8.90219,-5.59029 10.8897,-6.77248 3.39413,-2.01884 3.68947,-2.26109 4.86145,-3.98766 1.84647,-2.72024 7.01068,-9.07561 10.17802,-12.52567 3.32338,-3.62001 5.83537,-5.64989 6.84664,-5.53263 0.88731,0.1029 0.83336,0.78304 -0.23869,3.00935 -2.25884,4.69092 -13.283,19.63182 -18.48205,25.04849 -6.27303,6.53559 -12.90874,10.91415 -21.72799,14.33715 -4.39386,1.70538 -5.44226,2.31724 -7.01146,4.09196 -4.72788,5.34711 -13.38391,10.05141 -21.91719,11.91137 -1.28592,0.28029 -2.37164,0.5489 -2.41271,0.59693 -0.0411,0.048 -0.21469,2.28997 -0.38581,4.98211 -0.17112,2.692127 -0.37823,5.162677 -0.46024,5.490097 -0.19671,0.78529 0.0274,0.77343 3.91093,-0.207 8.5281,-2.15302 15.58119,-3.4034 20.33898,-3.60573 2.97241,-0.1264 4.10474,-0.056 6.74688,0.4192 6.22064,1.11894 19.3468,4.5725 24.20937,6.36962 2.21005,0.81679 2.36569,0.83535 8.99584,1.07256 7.71872,0.27615 13.87969,0.69732 15.61041,1.06713 3.37949,0.72211 3.56767,1.59559 0.52917,2.45632 -3.35582,0.95062 -7.59313,1.32669 -14.94896,1.32674 -16.48593,1.1e-4 -18.49521,-0.11366 -32.51842,-1.84126 -10.63807,-1.31057 -11.23244,-1.30677 -16.2972,0.10412 -6.59874,1.83821 -17.29381,4.82737 -17.75463,4.96223 -0.27931,0.0817 -0.63163,0.91384 -1.03046,2.43373 -0.87837,3.34735 -2.19067,6.65728 -3.98331,10.04676 -0.8653,1.63611 -1.57327,3.03509 -1.57327,3.10886 0,0.0738 0.34159,0.13411 0.75909,0.13411 0.4175,0 1.81649,0.18373 3.10885,0.40829 8.8204,1.53258 21.77744,8.46939 31.32164,16.76863 2.7586,2.39876 18.55813,18.06638 23.2631,23.06888 4.2282,4.49557 5.25411,6.06934 6.44886,9.89275 1.44247,4.6162 2.03839,9.6633 2.03714,17.25363 -0.002,11.23808 -1.55217,20.37726 -3.84575,22.67085 -0.59409,0.59409 -0.88842,0.53105 -1.18698,-0.25421 z"
       id="path872" />
  </g>
</svg>
